<?xml version="1.0" encoding="UTF-8" standalone="no"?>
<!DOCTYPE svg PUBLIC "-//W3C//DTD SVG 1.1//EN"
 "http://www.w3.org/Graphics/SVG/1.1/DTD/svg11.dtd">
<!-- Generated by graphviz version 2.26.3 (20100126.1600)
 -->
<!-- Title: _anonymous_0 Pages: 1 -->
<svg width="792pt" height="230pt"
 viewBox="0.00 0.00 792.00 229.52" xmlns="http://www.w3.org/2000/svg" xmlns:xlink="http://www.w3.org/1999/xlink">
<g id="graph1" class="graph" transform="scale(0.808163 0.808163) rotate(0) translate(4 280)">
<title>_anonymous_0</title>
<polygon fill="white" stroke="white" points="-4,5 -4,-280 977,-280 977,5 -4,5"/>
<!-- data -->
<g id="node1" class="node"><title>data</title>
<polygon fill="none" stroke="lightgrey" points="0.5,-63 0.5,-111 81.5,-111 81.5,-63 0.5,-63"/>
<text text-anchor="middle" x="41" y="-94.4" font-family="Arial" font-size="14.00">Input Data</text>
<polyline fill="none" stroke="lightgrey" points="0.5,-87 81.5,-87 "/>
<text text-anchor="middle" x="41" y="-70.4" font-family="Arial" font-size="14.00">CSV</text>
</g>
<!-- adjacency -->
<g id="node2" class="node"><title>adjacency</title>
<polygon fill="none" stroke="lightgrey" points="158.5,-109 158.5,-181 287.5,-181 287.5,-109 158.5,-109"/>
<text text-anchor="middle" x="223" y="-164.4" font-family="Arial" font-size="14.00">adjacency</text>
<polyline fill="none" stroke="lightgrey" points="158.5,-157 287.5,-157 "/>
<text text-anchor="middle" x="223" y="-140.4" font-family="Arial" font-size="14.00">15,122 x 876,961</text>
<polyline fill="none" stroke="lightgrey" points="158.5,-133 287.5,-133 "/>
<text text-anchor="middle" x="223" y="-116.4" font-family="Arial" font-size="14.00">sparse</text>
</g>
<!-- data&#45;&gt;adjacency -->
<g id="edge2" class="edge"><title>data&#45;&gt;adjacency</title>
<path fill="none" stroke="grey" d="M81.8444,-100.016C101.561,-106.3 125.845,-114.039 148.679,-121.315"/>
<polygon fill="grey" stroke="grey" points="147.768,-124.698 158.358,-124.4 149.893,-118.029 147.768,-124.698"/>
<text text-anchor="middle" x="120" y="-120.4" font-family="Arial" font-size="14.00">import</text>
</g>
<!-- subreddits -->
<g id="node4" class="node"><title>subreddits</title>
<polygon fill="none" stroke="lightgrey" points="181,-0 181,-72 265,-72 265,-0 181,-0"/>
<text text-anchor="middle" x="223" y="-55.4" font-family="Arial" font-size="14.00">subreddits</text>
<polyline fill="none" stroke="lightgrey" points="181,-48 265,-48 "/>
<text text-anchor="middle" x="223" y="-31.4" font-family="Arial" font-size="14.00">15,122 x 1</text>
<polyline fill="none" stroke="lightgrey" points="181,-24 265,-24 "/>
<text text-anchor="middle" x="223" y="-7.4" font-family="Arial" font-size="14.00">strings</text>
</g>
<!-- data&#45;&gt;subreddits -->
<g id="edge4" class="edge"><title>data&#45;&gt;subreddits</title>
<path fill="none" stroke="grey" d="M81.8444,-75.5546C108.188,-68.1725 142.688,-58.5051 170.985,-50.5756"/>
<polygon fill="grey" stroke="grey" points="172.027,-53.9185 180.712,-47.8499 170.138,-47.1781 172.027,-53.9185"/>
</g>
<!-- users_per_subreddit -->
<g id="node6" class="node"><title>users_per_subreddit</title>
<polygon fill="none" stroke="lightgrey" points="418.5,-204 418.5,-276 567.5,-276 567.5,-204 418.5,-204"/>
<text text-anchor="middle" x="493" y="-259.4" font-family="Arial" font-size="14.00">users_per_subreddit</text>
<polyline fill="none" stroke="lightgrey" points="418.5,-252 567.5,-252 "/>
<text text-anchor="middle" x="493" y="-235.4" font-family="Arial" font-size="14.00">15,122 x 1</text>
<polyline fill="none" stroke="lightgrey" points="418.5,-228 567.5,-228 "/>
<text text-anchor="middle" x="493" y="-211.4" font-family="Arial" font-size="14.00">counts</text>
</g>
<!-- adjacency&#45;&gt;users_per_subreddit -->
<g id="edge6" class="edge"><title>adjacency&#45;&gt;users_per_subreddit</title>
<path fill="none" stroke="grey" d="M287.672,-167.755C323.915,-180.507 369.54,-196.561 408.573,-210.294"/>
<polygon fill="grey" stroke="grey" points="407.75,-213.715 418.344,-213.732 410.073,-207.112 407.75,-213.715"/>
</g>
<!-- embedded_coords -->
<g id="node9" class="node"><title>embedded_coords</title>
<polygon fill="none" stroke="lightgrey" points="423.5,-109 423.5,-181 562.5,-181 562.5,-109 423.5,-109"/>
<text text-anchor="middle" x="493" y="-164.4" font-family="Arial" font-size="14.00">embedded_coords</text>
<polyline fill="none" stroke="lightgrey" points="423.5,-157 562.5,-157 "/>
<text text-anchor="middle" x="493" y="-140.4" font-family="Arial" font-size="14.00">15,122 x 100</text>
<polyline fill="none" stroke="lightgrey" points="423.5,-133 562.5,-133 "/>
<text text-anchor="middle" x="493" y="-116.4" font-family="Arial" font-size="14.00">dense</text>
</g>
<!-- adjacency&#45;&gt;embedded_coords -->
<g id="edge9" class="edge"><title>adjacency&#45;&gt;embedded_coords</title>
<path fill="none" stroke="grey" d="M287.672,-145C325.273,-145 372.974,-145 412.933,-145"/>
<polygon fill="grey" stroke="grey" points="413.18,-148.5 423.18,-145 413.18,-141.5 413.18,-148.5"/>
<text text-anchor="middle" x="353" y="-148.4" font-family="Arial" font-size="14.00">TruncatedSVD</text>
</g>
<!-- hover_labels -->
<g id="node24" class="node"><title>hover_labels</title>
<polygon fill="none" stroke="lightgrey" points="778,-17 778,-53 876,-53 876,-17 778,-17"/>
<text text-anchor="middle" x="827" y="-30.4" font-family="Arial" font-size="14.00">hover_labels</text>
</g>
<!-- subreddits&#45;&gt;hover_labels -->
<g id="edge25" class="edge"><title>subreddits&#45;&gt;hover_labels</title>
<path fill="none" stroke="grey" d="M265.472,-35.9297C371.144,-35.7547 646.106,-35.2995 767.694,-35.0982"/>
<polygon fill="grey" stroke="grey" points="767.932,-38.5979 777.926,-35.0812 767.92,-31.5979 767.932,-38.5979"/>
</g>
<!-- size -->
<g id="node17" class="node"><title>size</title>
<polygon fill="none" stroke="lightgrey" points="800,-208 800,-244 854,-244 854,-208 800,-208"/>
<text text-anchor="middle" x="827" y="-221.4" font-family="Arial" font-size="14.00">size</text>
</g>
<!-- users_per_subreddit&#45;&gt;size -->
<g id="edge16" class="edge"><title>users_per_subreddit&#45;&gt;size</title>
<path fill="none" stroke="grey" d="M567.54,-236.876C636.574,-233.982 736.388,-229.798 789.858,-227.557"/>
<polygon fill="grey" stroke="grey" points="790.067,-231.051 799.911,-227.135 789.773,-224.057 790.067,-231.051"/>
</g>
<!-- clusters -->
<g id="node12" class="node"><title>clusters</title>
<polygon fill="none" stroke="lightgrey" points="656,-145 656,-217 740,-217 740,-145 656,-145"/>
<text text-anchor="middle" x="698" y="-200.4" font-family="Arial" font-size="14.00">clusters</text>
<polyline fill="none" stroke="lightgrey" points="656,-193 740,-193 "/>
<text text-anchor="middle" x="698" y="-176.4" font-family="Arial" font-size="14.00">15,122 x 1</text>
<polyline fill="none" stroke="lightgrey" points="656,-169 740,-169 "/>
<text text-anchor="middle" x="698" y="-152.4" font-family="Arial" font-size="14.00">ints</text>
</g>
<!-- embedded_coords&#45;&gt;clusters -->
<g id="edge12" class="edge"><title>embedded_coords&#45;&gt;clusters</title>
<path fill="none" stroke="grey" d="M562.69,-157.238C589.929,-162.022 620.623,-167.412 645.884,-171.848"/>
<polygon fill="grey" stroke="grey" points="645.537,-175.341 655.992,-173.623 646.748,-168.446 645.537,-175.341"/>
<text text-anchor="middle" x="612" y="-173.4" font-family="Arial" font-size="14.00">KMeans</text>
</g>
<!-- xycoords -->
<g id="node14" class="node"><title>xycoords</title>
<polygon fill="none" stroke="lightgrey" points="656,-55 656,-127 740,-127 740,-55 656,-55"/>
<text text-anchor="middle" x="698" y="-110.4" font-family="Arial" font-size="14.00">xycoords</text>
<polyline fill="none" stroke="lightgrey" points="656,-103 740,-103 "/>
<text text-anchor="middle" x="698" y="-86.4" font-family="Arial" font-size="14.00">15,122 x 2</text>
<polyline fill="none" stroke="lightgrey" points="656,-79 740,-79 "/>
<text text-anchor="middle" x="698" y="-62.4" font-family="Arial" font-size="14.00">2&#45;d points</text>
</g>
<!-- embedded_coords&#45;&gt;xycoords -->
<g id="edge14" class="edge"><title>embedded_coords&#45;&gt;xycoords</title>
<path fill="none" stroke="grey" d="M562.69,-126.643C590.05,-119.436 620.896,-111.31 646.22,-104.64"/>
<polygon fill="grey" stroke="grey" points="647.213,-107.997 655.992,-102.066 645.43,-101.228 647.213,-107.997"/>
<text text-anchor="middle" x="612" y="-122.4" font-family="Arial" font-size="14.00">TSNE</text>
</g>
<!-- colour -->
<g id="node22" class="node"><title>colour</title>
<polygon fill="none" stroke="lightgrey" points="799,-136 799,-172 855,-172 855,-136 799,-136"/>
<text text-anchor="middle" x="827" y="-149.4" font-family="Arial" font-size="14.00">colour</text>
</g>
<!-- clusters&#45;&gt;colour -->
<g id="edge22" class="edge"><title>clusters&#45;&gt;colour</title>
<path fill="none" stroke="grey" d="M740.239,-172.159C755.882,-168.885 773.514,-165.195 788.779,-162"/>
<polygon fill="grey" stroke="grey" points="789.844,-165.353 798.914,-159.878 788.41,-158.501 789.844,-165.353"/>
</g>
<!-- position -->
<g id="node20" class="node"><title>position</title>
<polygon fill="none" stroke="lightgrey" points="794,-80 794,-116 860,-116 860,-80 794,-80"/>
<text text-anchor="middle" x="827" y="-93.4" font-family="Arial" font-size="14.00">position</text>
</g>
<!-- xycoords&#45;&gt;position -->
<g id="edge19" class="edge"><title>xycoords&#45;&gt;position</title>
<path fill="none" stroke="grey" d="M740.239,-93.2921C754.058,-94.0419 769.431,-94.8761 783.352,-95.6315"/>
<polygon fill="grey" stroke="grey" points="783.489,-99.144 793.664,-96.1911 783.868,-92.1543 783.489,-99.144"/>
</g>
<!-- Bokeh -->
<g id="node18" class="node"><title>Bokeh</title>
<polygon fill="none" stroke="lightgrey" points="914.5,-108 914.5,-144 971.5,-144 971.5,-108 914.5,-108"/>
<text text-anchor="middle" x="943" y="-121.4" font-family="Arial" font-size="14.00">Bokeh</text>
</g>
<!-- size&#45;&gt;Bokeh -->
<g id="edge17" class="edge"><title>size&#45;&gt;Bokeh</title>
<path fill="none" stroke="grey" d="M848.007,-207.891C866.451,-191.991 893.461,-168.706 913.969,-151.026"/>
<polygon fill="grey" stroke="grey" points="916.469,-153.493 921.758,-144.312 911.898,-148.191 916.469,-153.493"/>
</g>
<!-- position&#45;&gt;Bokeh -->
<g id="edge20" class="edge"><title>position&#45;&gt;Bokeh</title>
<path fill="none" stroke="grey" d="M860.241,-106.024C874.032,-109.353 890.123,-113.237 904.43,-116.69"/>
<polygon fill="grey" stroke="grey" points="903.933,-120.17 914.475,-119.115 905.575,-113.366 903.933,-120.17"/>
</g>
<!-- colour&#45;&gt;Bokeh -->
<g id="edge23" class="edge"><title>colour&#45;&gt;Bokeh</title>
<path fill="none" stroke="grey" d="M855.08,-147.222C869.962,-143.63 888.462,-139.164 904.647,-135.258"/>
<polygon fill="grey" stroke="grey" points="905.473,-138.659 914.372,-132.91 903.83,-131.854 905.473,-138.659"/>
</g>
<!-- hover_labels&#45;&gt;Bokeh -->
<g id="edge26" class="edge"><title>hover_labels&#45;&gt;Bokeh</title>
<path fill="none" stroke="grey" d="M852.121,-53.0579C859.846,-58.7167 868.331,-65.0419 876,-71 888.553,-80.7521 902.153,-91.8199 913.799,-101.457"/>
<polygon fill="grey" stroke="grey" points="911.585,-104.168 921.513,-107.867 916.059,-98.7843 911.585,-104.168"/>
</g>
</g>
</svg>
